<svg xmlns="http://www.w3.org/2000/svg" version="1.1" xmlns:xlink="http://www.w3.org/1999/xlink" width="1000" height="1000"><metadata><rdf:RDF xmlns:rdf="http://www.w3.org/1999/02/22-rdf-syntax-ns#" xmlns:dc="http://purl.org/dc/elements/1.1/"><rdf:Description><dc:creator>RealFaviconGenerator</dc:creator><dc:source>https://realfavicongenerator.net</dc:source></rdf:Description></rdf:RDF></metadata><style>
    #light-icon {
      display: inline;
    }
    #dark-icon {
      display: none;
    }

    @media (prefers-color-scheme: dark) {
      #light-icon {
        display: none;
      }
      #dark-icon {
        display: inline;
      }
    }
  </style><g id="light-icon"><svg xmlns="http://www.w3.org/2000/svg" version="1.1" xmlns:xlink="http://www.w3.org/1999/xlink" width="1000" height="1000"><g><g transform="matrix(3.90625,0,0,3.90625,0,0)"><svg xmlns="http://www.w3.org/2000/svg" width="256" height="256" viewBox="0 0 256 256" fill="none"><path d="M44.735 197.667C40.7074 197.667 37.2447 196.24 34.3468 193.385C31.4489 190.482 30 186.988 30 182.903C30 178.868 31.4489 175.423 34.3468 172.569C37.2447 169.665 40.7074 168.214 44.735 168.214C48.7625 168.214 52.2252 169.665 55.1231 172.569C58.021 175.423 59.4699 178.868 59.4699 182.903C59.4699 185.61 58.7823 188.095 57.407 190.359C56.0809 192.573 54.3127 194.345 52.1024 195.674C49.8922 197.002 47.4364 197.667 44.735 197.667ZM44.735 115.139C40.7074 115.139 37.2447 113.687 34.3468 110.784C31.4489 107.88 30 104.411 30 100.376C30 96.3403 31.4489 92.8955 34.3468 90.0412C37.2447 87.1377 40.7074 85.686 44.735 85.686C48.7625 85.686 52.2252 87.1377 55.1231 90.0412C58.021 92.8955 59.4699 96.3403 59.4699 100.376C59.4699 103.082 58.7823 105.567 57.407 107.831C56.0809 110.046 54.3127 111.817 52.1024 113.146C49.8922 114.475 47.4364 115.139 44.735 115.139Z" fill="#161B1D"></path><path d="M157.762 38L109.137 219H85.7821L134.407 38H157.762Z" fill="#161B1D"></path><path d="M226 38L177.375 219H154.02L202.645 38H226Z" fill="#161B1D"></path></svg></g></g></svg></g><g id="dark-icon"><svg xmlns="http://www.w3.org/2000/svg" version="1.1" xmlns:xlink="http://www.w3.org/1999/xlink" width="1000" height="1000"><g><g transform="matrix(3.90625,0,0,3.90625,0,0)"><svg xmlns="http://www.w3.org/2000/svg" width="256" height="256" viewBox="0 0 256 256" fill="none"><path d="M44.735 197.667C40.7074 197.667 37.2447 196.24 34.3468 193.385C31.4489 190.482 30 186.988 30 182.903C30 178.868 31.4489 175.423 34.3468 172.569C37.2447 169.665 40.7074 168.214 44.735 168.214C48.7625 168.214 52.2252 169.665 55.1231 172.569C58.021 175.423 59.4699 178.868 59.4699 182.903C59.4699 185.61 58.7823 188.095 57.407 190.359C56.0809 192.573 54.3127 194.345 52.1024 195.674C49.8922 197.002 47.4364 197.667 44.735 197.667ZM44.735 115.139C40.7074 115.139 37.2447 113.687 34.3468 110.784C31.4489 107.88 30 104.411 30 100.376C30 96.3403 31.4489 92.8955 34.3468 90.0412C37.2447 87.1377 40.7074 85.686 44.735 85.686C48.7625 85.686 52.2252 87.1377 55.1231 90.0412C58.021 92.8955 59.4699 96.3403 59.4699 100.376C59.4699 103.082 58.7823 105.567 57.407 107.831C56.0809 110.046 54.3127 111.817 52.1024 113.146C49.8922 114.475 47.4364 115.139 44.735 115.139Z" fill="#E3E7E8"></path><path d="M157.762 38L109.137 219H85.7821L134.407 38H157.762Z" fill="#E3E7E8"></path><path d="M226 38L177.375 219H154.02L202.645 38H226Z" fill="#E3E7E8"></path></svg></g></g></svg></g></svg>